<svg width="100" height="30" viewBox="0 0 100 30" fill="none" xmlns="http://www.w3.org/2000/svg">
<path d="M12.7697 21.8534C14.0419 21.8534 15.2442 21.4134 15.2442 20.0247C15.2442 18.636 13.6286 18.0212 10.7461 17.4806C5.31938 16.4629 1.99141 14.5654 1.99141 9.71554C1.99141 4.86572 7.34299 2.38515 11.9431 2.38515C16.5432 2.38515 22.1417 4.5212 22.5228 11.576H16.5486C16.3768 8.72968 14.5894 7.5742 11.6371 7.5742C8.68492 7.5742 8.09984 8.42226 8.09984 9.84805C8.09984 11.2738 9.23242 12.2226 12.6677 12.9011C18.336 14.0194 21.4922 15.6148 21.4922 20.0247C21.4922 24.4346 17.5094 26.8092 12.4584 26.8092C7.40741 26.8092 3.15083 23.4541 2.84487 18.6731H8.92109C9.02308 20.7085 10.569 21.8587 12.7697 21.8587V21.8534Z" fill="white"/>
<path d="M31.2453 13.5795C28.9801 13.5795 27.7778 15.477 27.7778 17.9205C27.7778 20.364 29.2915 22.3304 31.2829 22.3304C33.2743 22.3304 34.0311 21.2809 34.3371 19.5477H39.898C39.5223 23.788 36.6023 26.8039 31.2453 26.8039C25.8884 26.8039 22.1471 23.1413 22.1471 18.0212C22.1471 12.9011 25.5824 9.16961 31.2131 9.16961C36.8438 9.16961 39.2163 11.9841 39.694 16.3251H34.1653C33.9238 14.6979 33.0649 13.5795 31.2453 13.5795Z" fill="white"/>
<path d="M52.6033 17.9841C52.6033 15.2385 51.5405 13.4735 49.4096 13.4735C47.2786 13.4735 46.2158 15.2385 46.2158 17.9841C46.2158 20.7297 47.2786 22.5265 49.4096 22.5265C51.5405 22.5265 52.6033 20.7615 52.6033 17.9841ZM40.4133 17.9841C40.4133 12.2862 44.0204 9.16961 49.4096 9.16961C54.7987 9.16961 58.4058 12.2915 58.4058 17.9841C58.4058 23.6767 54.7987 26.7986 49.4096 26.7986C44.0204 26.7986 40.4133 23.7138 40.4133 17.9841Z" fill="white"/>
<path d="M76.817 9.50883V26.4647H71.0467V22.7332C70.671 23.7509 69.227 26.8039 65.1422 26.8039C61.0574 26.8039 59.2002 24.7367 59.2002 19.818V9.50883H65.0403V18.5618C65.0403 21.0053 65.6253 22.1555 67.4772 22.1555C69.329 22.1555 71.0467 20.7986 71.0467 14.4912V9.50883H76.817Z" fill="white"/>
<path d="M91.6479 22.0548V26.4647H87.6328C83.9936 26.4647 80.9018 24.1908 80.9018 19.7862V13.4099H77.7402V9.50883H80.9018V5.77738L86.7042 4.75971V9.50883H91.3043V13.4099H86.7042V19.2403C86.7042 20.9046 87.5631 22.0548 89.4847 22.0548H91.6479Z" fill="white"/>
<path d="M94.9383 2.81448C93.3655 2.81448 92.0827 4.08127 92.0827 5.63427C92.0827 7.18727 93.3655 8.45406 94.9383 8.45406C96.511 8.45406 97.7939 7.18727 97.7939 5.63427C97.7939 4.08127 96.511 2.81448 94.9383 2.81448ZM94.9383 9.30212C92.8878 9.30212 91.2185 7.65371 91.2185 5.62897C91.2185 3.60424 92.8878 1.95583 94.9383 1.95583C96.9887 1.95583 98.6581 3.60424 98.6581 5.62897C98.6581 7.65371 96.9887 9.30212 94.9383 9.30212Z" fill="white"/>
<path d="M95.0242 6.88515C95.2442 6.88515 95.4536 6.81095 95.4536 6.56713C95.4536 6.32332 95.1744 6.22261 94.6753 6.1272C93.7413 5.95229 93.1669 5.62367 93.1669 4.78621C93.1669 3.94876 94.0902 3.52473 94.8846 3.52473C95.679 3.52473 96.6452 3.89045 96.7096 5.10954H95.679C95.6468 4.6166 95.3408 4.42049 94.8309 4.42049C94.321 4.42049 94.219 4.5689 94.219 4.81272C94.219 5.05653 94.4122 5.22084 95.008 5.33745C95.985 5.52826 96.5325 5.80388 96.5325 6.56713C96.5325 7.33038 95.8454 7.73851 94.9758 7.73851C94.1063 7.73851 93.3709 7.16077 93.3172 6.33392H94.3639C94.38 6.68374 94.6484 6.88515 95.0295 6.88515H95.0242Z" fill="white"/>
</svg>
